<svg width="24" height="24" viewBox="0 0 24 24" fill="none" xmlns="http://www.w3.org/2000/svg">
<path fill-rule="evenodd" clip-rule="evenodd" d="M20.7399 6.86011L21.9999 15.2001C22.5099 18.8501 19.9999 22.1701 16.5999 22.2001H7.33987C3.99987 22.2001 1.45987 18.8501 1.99987 15.2001L3.25987 6.86011C3.55899 4.10248 5.82855 1.97743 8.59987 1.86011H15.3999C18.1712 1.97743 20.4407 4.10248 20.7399 6.86011ZM16.6299 20.6701C17.7036 20.6546 18.7164 20.1683 19.3999 19.3401C20.3166 18.2544 20.7146 16.8231 20.4899 15.4201L19.2599 7.08011C19.0842 5.04439 17.4398 3.44683 15.3999 3.33011H8.59987C6.55993 3.44683 4.9155 5.04439 4.73987 7.08011L3.50987 15.4201C3.28518 16.8231 3.68317 18.2544 4.59987 19.3401C5.28338 20.1683 6.29613 20.6546 7.36987 20.6701H16.6299Z" fill="white"/>
<path d="M15.1499 7.06011C14.7357 7.06011 14.3999 7.39589 14.3999 7.81011C14.3999 9.13559 13.3254 10.2101 11.9999 10.2101C10.6744 10.2101 9.59987 9.13559 9.59987 7.81011C9.59987 7.39589 9.26408 7.06011 8.84987 7.06011C8.43565 7.06011 8.09987 7.39589 8.09987 7.81011C8.09987 9.20344 8.8432 10.4909 10.0499 11.1876C11.2565 11.8843 12.7432 11.8843 13.9499 11.1876C15.1565 10.4909 15.8999 9.20344 15.8999 7.81011C15.8945 7.39815 15.5618 7.06549 15.1499 7.06011Z" fill="white"/>
</svg>
